<svg xmlns="http://www.w3.org/2000/svg" width="143.763" height="38.465" viewBox="0 0 143.763 38.465"><defs><style>.a{fill:#424242;}.b{fill:#facf9c;}.c{fill:#f6a647;}.d{fill:#f28400;}</style></defs><g transform="translate(-0.2 -0.7)"><path class="a" d="M14.483,10.6,6.2,37.832h9.645L24.128,10.6H14.483Z" transform="translate(0.808 1.333)"/><path class="a" d="M64.245,22.574l6.581,15.2H61.749l-5.56-12.028L52.445,37.778H42.8L50.97,11h9.645l-2.383,7.943L67.763,11H78.315Z" transform="translate(5.737 1.387)"/><path class="a" d="M103.852,13.269a3.847,3.847,0,0,0-1.021-1.589,2.309,2.309,0,0,0-1.7-.681H78.548l-2.042,6.581H94.32L93.3,21.1H79.683a4.624,4.624,0,0,0-2.042.567A12.472,12.472,0,0,0,75.6,23.254a10.168,10.168,0,0,0-1.7,2.156,10.6,10.6,0,0,0-1.135,2.269L71.74,31.2a7.316,7.316,0,0,0-.34,2.269,6.606,6.606,0,0,0,.34,2.156,3.847,3.847,0,0,0,1.021,1.589,2.228,2.228,0,0,0,1.7.567H97.724l6.127-20.2a7.316,7.316,0,0,0,.34-2.269A6.424,6.424,0,0,0,103.852,13.269ZM90.236,31.2H81.5L82.52,27.68h8.737Z" transform="translate(9.589 1.387)"/><g transform="translate(24.709 12.387)"><path class="a" d="M49.146,11,47.1,17.581H37.572l-6.127,20.2H21.8l6.127-20.2c.794-3.4,3.517-6.241,6.354-6.581H49.146Z" transform="translate(-21.8 -11)"/></g><path class="a" d="M126.446,11,124.4,17.581h-9.531l-6.127,20.2H99.1l6.127-20.2c.794-3.4,3.517-6.241,6.354-6.581h14.864Z" transform="translate(13.319 1.387)"/><path class="b" d="M129.513.7l-2.5,8.17H107.5L110,.7Z" transform="translate(14.45 0)"/><path class="c" d="M114,.7l-2.5,8.17H77.8L80.3.7Z" transform="translate(10.451 0)"/><path class="d" d="M85.616.7l-2.5,8.17H38.3L40.8.7Z" transform="translate(5.131 0)"/><path class="a" d="M2.7.7.2,8.87H39.914L42.3.7Z" transform="translate(0 0)"/></g></svg>