<svg xmlns="http://www.w3.org/2000/svg" width="20" height="20" viewBox="0 0 20 20"><defs><style>.a{fill:none;}.b{fill:#ef9300;}</style></defs><rect class="a" width="20" height="20" transform="translate(0 0)"/><path class="b" d="M18,20H2a2,2,0,0,1-2-2V2A2,2,0,0,1,2,0H18a2,2,0,0,1,2,2V18A2,2,0,0,1,18,20ZM3,14.252H3A8.361,8.361,0,0,0,7.4,15.5a7.975,7.975,0,0,0,8.172-7.9c0-.12,0-.241-.008-.359A5.726,5.726,0,0,0,17,5.8a5.909,5.909,0,0,1-1.65.437A2.8,2.8,0,0,0,16.613,4.7a5.883,5.883,0,0,1-1.824.674,2.931,2.931,0,0,0-2.1-.878A2.829,2.829,0,0,0,9.821,7.276a2.714,2.714,0,0,0,.074.633,8.279,8.279,0,0,1-5.92-2.9,2.713,2.713,0,0,0-.388,1.4A2.751,2.751,0,0,0,4.864,8.716a2.953,2.953,0,0,1-1.3-.347V8.4a2.808,2.808,0,0,0,2.3,2.722,2.989,2.989,0,0,1-1.3.048A2.861,2.861,0,0,0,7.252,13.1a5.849,5.849,0,0,1-3.567,1.19A5.974,5.974,0,0,1,3,14.252Z" transform="translate(0 0)"/></svg>